<?xml version="1.0" standalone="no"?>
<svg viewBox="0 0 200 200" xmlns="http://www.w3.org/2000/svg">
  <path fill="#ffff" d="M35.7,-55.9C49.3,-46.9,65.3,-42,71.4,-31.7C77.5,-21.4,73.6,-5.7,68,7.4C62.4,20.5,55.2,31,46.8,40.3C38.4,49.6,28.9,57.8,18,60.6C7.2,63.4,-5,60.9,-14.9,55.7C-24.7,50.5,-32.3,42.5,-42.1,34.6C-51.9,26.7,-63.9,18.8,-69.3,7.5C-74.7,-3.7,-73.4,-18.3,-67,-29.8C-60.5,-41.2,-48.8,-49.5,-36.8,-59.2C-24.8,-68.8,-12.4,-79.9,-0.6,-78.9C11.1,-77.9,22.2,-64.8,35.7,-55.9Z" transform="translate(100 100)" />
</svg>
